<?xml version="1.0" encoding="UTF-8"?>
<svg xmlns="http://www.w3.org/2000/svg" xmlns:xlink="http://www.w3.org/1999/xlink" width="600pt" height="600pt" viewBox="0 0 600 600" version="1.1">
<g id="surface8">
<rect x="0" y="0" width="600" height="600" style="fill:rgb(100%,100%,100%);fill-opacity:1;stroke:none;"/>
<path style="fill:none;stroke-width:0.980108;stroke-linecap:butt;stroke-linejoin:miter;stroke:rgb(26.666667%,26.666667%,26.666667%);stroke-opacity:1;stroke-miterlimit:10;" d="M 580 300.003906 L 300 300.003906 "/>
<path style="fill:none;stroke-width:0.980523;stroke-linecap:butt;stroke-linejoin:miter;stroke:rgb(26.666667%,26.666667%,26.666667%);stroke-opacity:1;stroke-miterlimit:10;" d="M 579.089844 322.554688 L 300 300.003906 "/>
<path style="fill:none;stroke-width:0.976076;stroke-linecap:butt;stroke-linejoin:miter;stroke:rgb(26.666667%,26.666667%,26.666667%);stroke-opacity:1;stroke-miterlimit:10;" d="M 576.371094 344.960938 L 300 300.003906 "/>
<path style="fill:none;stroke-width:0.972199;stroke-linecap:butt;stroke-linejoin:miter;stroke:rgb(26.666667%,26.666667%,26.666667%);stroke-opacity:1;stroke-miterlimit:10;" d="M 571.859375 367.074219 L 300 300.003906 "/>
<path style="fill:none;stroke-width:0.987096;stroke-linecap:butt;stroke-linejoin:miter;stroke:rgb(26.666667%,26.666667%,26.666667%);stroke-opacity:1;stroke-miterlimit:10;" d="M 565.585938 388.753906 L 300 300.003906 "/>
<path style="fill:none;stroke-width:0.981497;stroke-linecap:butt;stroke-linejoin:miter;stroke:rgb(26.666667%,26.666667%,26.666667%);stroke-opacity:1;stroke-miterlimit:10;" d="M 557.585938 409.859375 L 300 300.003906 "/>
<path style="fill:none;stroke-width:0.976976;stroke-linecap:butt;stroke-linejoin:miter;stroke:rgb(26.666667%,26.666667%,26.666667%);stroke-opacity:1;stroke-miterlimit:10;" d="M 547.917969 430.246094 L 300 300.003906 "/>
<path style="fill:none;stroke-width:0.981109;stroke-linecap:butt;stroke-linejoin:miter;stroke:rgb(26.666667%,26.666667%,26.666667%);stroke-opacity:1;stroke-miterlimit:10;" d="M 536.640625 449.792969 L 300 300.003906 "/>
<path style="fill:none;stroke-width:0.98255;stroke-linecap:butt;stroke-linejoin:miter;stroke:rgb(26.666667%,26.666667%,26.666667%);stroke-opacity:1;stroke-miterlimit:10;" d="M 523.824219 468.367188 L 300 300.003906 "/>
<path style="fill:none;stroke-width:0.986152;stroke-linecap:butt;stroke-linejoin:miter;stroke:rgb(26.666667%,26.666667%,26.666667%);stroke-opacity:1;stroke-miterlimit:10;" d="M 509.5625 485.847656 L 300 300.003906 "/>
<path style="fill:none;stroke-width:0.986858;stroke-linecap:butt;stroke-linejoin:miter;stroke:rgb(26.666667%,26.666667%,26.666667%);stroke-opacity:1;stroke-miterlimit:10;" d="M 493.9375 502.125 L 300 300.003906 "/>
<path style="fill:none;stroke-width:0.985816;stroke-linecap:butt;stroke-linejoin:miter;stroke:rgb(26.666667%,26.666667%,26.666667%);stroke-opacity:1;stroke-miterlimit:10;" d="M 477.054688 517.089844 L 300 300.003906 "/>
<path style="fill:none;stroke-width:0.98098;stroke-linecap:butt;stroke-linejoin:miter;stroke:rgb(26.666667%,26.666667%,26.666667%);stroke-opacity:1;stroke-miterlimit:10;" d="M 459.023438 530.644531 L 300 300.003906 "/>
<path style="fill:none;stroke-width:0.981965;stroke-linecap:butt;stroke-linejoin:miter;stroke:rgb(26.666667%,26.666667%,26.666667%);stroke-opacity:1;stroke-miterlimit:10;" d="M 439.957031 542.707031 L 300 300.003906 "/>
<path style="fill:none;stroke-width:0.991203;stroke-linecap:butt;stroke-linejoin:miter;stroke:rgb(26.666667%,26.666667%,26.666667%);stroke-opacity:1;stroke-miterlimit:10;" d="M 419.988281 553.191406 L 300 300.003906 "/>
<path style="fill:none;stroke-width:0.979545;stroke-linecap:butt;stroke-linejoin:miter;stroke:rgb(26.666667%,26.666667%,26.666667%);stroke-opacity:1;stroke-miterlimit:10;" d="M 399.238281 562.035156 L 300 300.003906 "/>
<path style="fill:none;stroke-width:0.976622;stroke-linecap:butt;stroke-linejoin:miter;stroke:rgb(26.666667%,26.666667%,26.666667%);stroke-opacity:1;stroke-miterlimit:10;" d="M 377.84375 569.175781 L 300 300.003906 "/>
<path style="fill:none;stroke-width:0.982209;stroke-linecap:butt;stroke-linejoin:miter;stroke:rgb(26.666667%,26.666667%,26.666667%);stroke-opacity:1;stroke-miterlimit:10;" d="M 355.945313 574.574219 L 300 300.003906 "/>
<path style="fill:none;stroke-width:0.981791;stroke-linecap:butt;stroke-linejoin:miter;stroke:rgb(26.666667%,26.666667%,26.666667%);stroke-opacity:1;stroke-miterlimit:10;" d="M 333.683594 578.1875 L 300 300.003906 "/>
<path style="fill:none;stroke-width:0.985531;stroke-linecap:butt;stroke-linejoin:miter;stroke:rgb(26.666667%,26.666667%,26.666667%);stroke-opacity:1;stroke-miterlimit:10;" d="M 311.203125 580 L 300 300.003906 "/>
<path style="fill:none;stroke-width:0.974597;stroke-linecap:butt;stroke-linejoin:miter;stroke:rgb(26.666667%,26.666667%,26.666667%);stroke-opacity:1;stroke-miterlimit:10;" d="M 288.652344 579.996094 L 300 300.003906 "/>
<path style="fill:none;stroke-width:0.97202;stroke-linecap:butt;stroke-linejoin:miter;stroke:rgb(26.666667%,26.666667%,26.666667%);stroke-opacity:1;stroke-miterlimit:10;" d="M 266.171875 578.171875 L 300 300.003906 "/>
<path style="fill:none;stroke-width:0.959608;stroke-linecap:butt;stroke-linejoin:miter;stroke:rgb(26.666667%,26.666667%,26.666667%);stroke-opacity:1;stroke-miterlimit:10;" d="M 243.914063 574.546875 L 300 300.003906 "/>
<path style="fill:none;stroke-width:0.968008;stroke-linecap:butt;stroke-linejoin:miter;stroke:rgb(26.666667%,26.666667%,26.666667%);stroke-opacity:1;stroke-miterlimit:10;" d="M 222.015625 569.136719 L 300 300.003906 "/>
<path style="fill:none;stroke-width:0.978948;stroke-linecap:butt;stroke-linejoin:miter;stroke:rgb(26.666667%,26.666667%,26.666667%);stroke-opacity:1;stroke-miterlimit:10;" d="M 200.628906 561.984375 L 300 300.003906 "/>
<path style="fill:none;stroke-width:0.979351;stroke-linecap:butt;stroke-linejoin:miter;stroke:rgb(26.666667%,26.666667%,26.666667%);stroke-opacity:1;stroke-miterlimit:10;" d="M 179.882813 553.128906 L 300 300.003906 "/>
<path style="fill:none;stroke-width:0.982277;stroke-linecap:butt;stroke-linejoin:miter;stroke:rgb(26.666667%,26.666667%,26.666667%);stroke-opacity:1;stroke-miterlimit:10;" d="M 159.917969 542.632813 L 300 300.003906 "/>
<path style="fill:none;stroke-width:0.982719;stroke-linecap:butt;stroke-linejoin:miter;stroke:rgb(26.666667%,26.666667%,26.666667%);stroke-opacity:1;stroke-miterlimit:10;" d="M 140.859375 530.5625 L 300 300.003906 "/>
<path style="fill:none;stroke-width:0.984573;stroke-linecap:butt;stroke-linejoin:miter;stroke:rgb(26.666667%,26.666667%,26.666667%);stroke-opacity:1;stroke-miterlimit:10;" d="M 122.835938 517 L 300 300.003906 "/>
<path style="fill:none;stroke-width:0.983347;stroke-linecap:butt;stroke-linejoin:miter;stroke:rgb(26.666667%,26.666667%,26.666667%);stroke-opacity:1;stroke-miterlimit:10;" d="M 105.960938 502.023438 L 300 300.003906 "/>
<path style="fill:none;stroke-width:0.974441;stroke-linecap:butt;stroke-linejoin:miter;stroke:rgb(26.666667%,26.666667%,26.666667%);stroke-opacity:1;stroke-miterlimit:10;" d="M 90.34375 485.742188 L 300 300.003906 "/>
<path style="fill:none;stroke-width:0.96942;stroke-linecap:butt;stroke-linejoin:miter;stroke:rgb(26.666667%,26.666667%,26.666667%);stroke-opacity:1;stroke-miterlimit:10;" d="M 76.085938 468.25 L 300 300.003906 "/>
<path style="fill:none;stroke-width:0.978059;stroke-linecap:butt;stroke-linejoin:miter;stroke:rgb(26.666667%,26.666667%,26.666667%);stroke-opacity:1;stroke-miterlimit:10;" d="M 63.285156 449.671875 L 300 300.003906 "/>
<path style="fill:none;stroke-width:0.970566;stroke-linecap:butt;stroke-linejoin:miter;stroke:rgb(26.666667%,26.666667%,26.666667%);stroke-opacity:1;stroke-miterlimit:10;" d="M 52.015625 430.121094 L 300 300.003906 "/>
<path style="fill:none;stroke-width:0.969382;stroke-linecap:butt;stroke-linejoin:miter;stroke:rgb(26.666667%,26.666667%,26.666667%);stroke-opacity:1;stroke-miterlimit:10;" d="M 42.355469 409.722656 L 300 300.003906 "/>
<path style="fill:none;stroke-width:0.988039;stroke-linecap:butt;stroke-linejoin:miter;stroke:rgb(26.666667%,26.666667%,26.666667%);stroke-opacity:1;stroke-miterlimit:10;" d="M 34.367188 388.617188 L 300 300.003906 "/>
<path style="fill:none;stroke-width:0.983826;stroke-linecap:butt;stroke-linejoin:miter;stroke:rgb(26.666667%,26.666667%,26.666667%);stroke-opacity:1;stroke-miterlimit:10;" d="M 28.105469 366.933594 L 300 300.003906 "/>
<path style="fill:none;stroke-width:0.970702;stroke-linecap:butt;stroke-linejoin:miter;stroke:rgb(26.666667%,26.666667%,26.666667%);stroke-opacity:1;stroke-miterlimit:10;" d="M 23.605469 344.816406 L 300 300.003906 "/>
<path style="fill:none;stroke-width:0.97754;stroke-linecap:butt;stroke-linejoin:miter;stroke:rgb(26.666667%,26.666667%,26.666667%);stroke-opacity:1;stroke-miterlimit:10;" d="M 20.898438 322.410156 L 300 300.003906 "/>
<path style="fill:none;stroke-width:0.978857;stroke-linecap:butt;stroke-linejoin:miter;stroke:rgb(26.666667%,26.666667%,26.666667%);stroke-opacity:1;stroke-miterlimit:10;" d="M 20 299.859375 L 300 300.003906 "/>
<path style="fill:none;stroke-width:0.97264;stroke-linecap:butt;stroke-linejoin:miter;stroke:rgb(26.666667%,26.666667%,26.666667%);stroke-opacity:1;stroke-miterlimit:10;" d="M 20.917969 277.304688 L 300 300.003906 "/>
<path style="fill:none;stroke-width:0.963434;stroke-linecap:butt;stroke-linejoin:miter;stroke:rgb(26.666667%,26.666667%,26.666667%);stroke-opacity:1;stroke-miterlimit:10;" d="M 23.648438 254.902344 L 300 300.003906 "/>
<path style="fill:none;stroke-width:0.985892;stroke-linecap:butt;stroke-linejoin:miter;stroke:rgb(26.666667%,26.666667%,26.666667%);stroke-opacity:1;stroke-miterlimit:10;" d="M 28.171875 232.789063 L 300 300.003906 "/>
<path style="fill:none;stroke-width:0.992652;stroke-linecap:butt;stroke-linejoin:miter;stroke:rgb(26.666667%,26.666667%,26.666667%);stroke-opacity:1;stroke-miterlimit:10;" d="M 34.460938 211.113281 L 300 300.003906 "/>
<path style="fill:none;stroke-width:0.982119;stroke-linecap:butt;stroke-linejoin:miter;stroke:rgb(26.666667%,26.666667%,26.666667%);stroke-opacity:1;stroke-miterlimit:10;" d="M 42.46875 190.015625 L 300 300.003906 "/>
<path style="fill:none;stroke-width:0.962256;stroke-linecap:butt;stroke-linejoin:miter;stroke:rgb(26.666667%,26.666667%,26.666667%);stroke-opacity:1;stroke-miterlimit:10;" d="M 52.148438 169.628906 L 300 300.003906 "/>
<path style="fill:none;stroke-width:0.983168;stroke-linecap:butt;stroke-linejoin:miter;stroke:rgb(26.666667%,26.666667%,26.666667%);stroke-opacity:1;stroke-miterlimit:10;" d="M 63.4375 150.089844 L 300 300.003906 "/>
<path style="fill:none;stroke-width:0.984181;stroke-linecap:butt;stroke-linejoin:miter;stroke:rgb(26.666667%,26.666667%,26.666667%);stroke-opacity:1;stroke-miterlimit:10;" d="M 76.261719 131.523438 L 300 300.003906 "/>
<path style="fill:none;stroke-width:0.963504;stroke-linecap:butt;stroke-linejoin:miter;stroke:rgb(26.666667%,26.666667%,26.666667%);stroke-opacity:1;stroke-miterlimit:10;" d="M 90.535156 114.046875 L 300 300.003906 "/>
<path style="fill:none;stroke-width:0.985439;stroke-linecap:butt;stroke-linejoin:miter;stroke:rgb(26.666667%,26.666667%,26.666667%);stroke-opacity:1;stroke-miterlimit:10;" d="M 106.167969 97.78125 L 300 300.003906 "/>
<path style="fill:none;stroke-width:0.966913;stroke-linecap:butt;stroke-linejoin:miter;stroke:rgb(26.666667%,26.666667%,26.666667%);stroke-opacity:1;stroke-miterlimit:10;" d="M 123.058594 82.824219 L 300 300.003906 "/>
<path style="fill:none;stroke-width:0.976216;stroke-linecap:butt;stroke-linejoin:miter;stroke:rgb(26.666667%,26.666667%,26.666667%);stroke-opacity:1;stroke-miterlimit:10;" d="M 141.097656 69.277344 L 300 300.003906 "/>
<path style="fill:none;stroke-width:0.980257;stroke-linecap:butt;stroke-linejoin:miter;stroke:rgb(26.666667%,26.666667%,26.666667%);stroke-opacity:1;stroke-miterlimit:10;" d="M 160.167969 57.226563 L 300 300.003906 "/>
<path style="fill:none;stroke-width:0.977693;stroke-linecap:butt;stroke-linejoin:miter;stroke:rgb(26.666667%,26.666667%,26.666667%);stroke-opacity:1;stroke-miterlimit:10;" d="M 180.144531 46.753906 L 300 300.003906 "/>
<path style="fill:none;stroke-width:0.978571;stroke-linecap:butt;stroke-linejoin:miter;stroke:rgb(26.666667%,26.666667%,26.666667%);stroke-opacity:1;stroke-miterlimit:10;" d="M 200.898438 37.921875 L 300 300.003906 "/>
<path style="fill:none;stroke-width:0.979668;stroke-linecap:butt;stroke-linejoin:miter;stroke:rgb(26.666667%,26.666667%,26.666667%);stroke-opacity:1;stroke-miterlimit:10;" d="M 222.296875 30.789063 L 300 300.003906 "/>
<path style="fill:none;stroke-width:0.980514;stroke-linecap:butt;stroke-linejoin:miter;stroke:rgb(26.666667%,26.666667%,26.666667%);stroke-opacity:1;stroke-miterlimit:10;" d="M 244.195313 25.402344 L 300 300.003906 "/>
<path style="fill:none;stroke-width:0.983417;stroke-linecap:butt;stroke-linejoin:miter;stroke:rgb(26.666667%,26.666667%,26.666667%);stroke-opacity:1;stroke-miterlimit:10;" d="M 266.460938 21.800781 L 300 300.003906 "/>
<path style="fill:none;stroke-width:0.987349;stroke-linecap:butt;stroke-linejoin:miter;stroke:rgb(26.666667%,26.666667%,26.666667%);stroke-opacity:1;stroke-miterlimit:10;" d="M 288.941406 20 L 300 300.003906 "/>
<path style="fill:none;stroke-width:0.977338;stroke-linecap:butt;stroke-linejoin:miter;stroke:rgb(26.666667%,26.666667%,26.666667%);stroke-opacity:1;stroke-miterlimit:10;" d="M 311.492188 20.015625 L 300 300.003906 "/>
<path style="fill:none;stroke-width:0.990712;stroke-linecap:butt;stroke-linejoin:miter;stroke:rgb(26.666667%,26.666667%,26.666667%);stroke-opacity:1;stroke-miterlimit:10;" d="M 333.972656 21.851563 L 300 300.003906 "/>
<path style="fill:none;stroke-width:0.98721;stroke-linecap:butt;stroke-linejoin:miter;stroke:rgb(26.666667%,26.666667%,26.666667%);stroke-opacity:1;stroke-miterlimit:10;" d="M 356.230469 25.488281 L 300 300.003906 "/>
<path style="fill:none;stroke-width:0.962471;stroke-linecap:butt;stroke-linejoin:miter;stroke:rgb(26.666667%,26.666667%,26.666667%);stroke-opacity:1;stroke-miterlimit:10;" d="M 378.121094 30.910156 L 300 300.003906 "/>
<path style="fill:none;stroke-width:0.971079;stroke-linecap:butt;stroke-linejoin:miter;stroke:rgb(26.666667%,26.666667%,26.666667%);stroke-opacity:1;stroke-miterlimit:10;" d="M 399.507813 38.074219 L 300 300.003906 "/>
<path style="fill:none;stroke-width:0.991748;stroke-linecap:butt;stroke-linejoin:miter;stroke:rgb(26.666667%,26.666667%,26.666667%);stroke-opacity:1;stroke-miterlimit:10;" d="M 420.25 46.9375 L 300 300.003906 "/>
<path style="fill:none;stroke-width:0.981525;stroke-linecap:butt;stroke-linejoin:miter;stroke:rgb(26.666667%,26.666667%,26.666667%);stroke-opacity:1;stroke-miterlimit:10;" d="M 440.207031 57.445313 L 300 300.003906 "/>
<path style="fill:none;stroke-width:0.981469;stroke-linecap:butt;stroke-linejoin:miter;stroke:rgb(26.666667%,26.666667%,26.666667%);stroke-opacity:1;stroke-miterlimit:10;" d="M 459.257813 69.523438 L 300 300.003906 "/>
<path style="fill:none;stroke-width:0.985427;stroke-linecap:butt;stroke-linejoin:miter;stroke:rgb(26.666667%,26.666667%,26.666667%);stroke-opacity:1;stroke-miterlimit:10;" d="M 477.277344 83.097656 L 300 300.003906 "/>
<path style="fill:none;stroke-width:0.984992;stroke-linecap:butt;stroke-linejoin:miter;stroke:rgb(26.666667%,26.666667%,26.666667%);stroke-opacity:1;stroke-miterlimit:10;" d="M 494.144531 98.082031 L 300 300.003906 "/>
<path style="fill:none;stroke-width:0.97136;stroke-linecap:butt;stroke-linejoin:miter;stroke:rgb(26.666667%,26.666667%,26.666667%);stroke-opacity:1;stroke-miterlimit:10;" d="M 509.753906 114.375 L 300 300.003906 "/>
<path style="fill:none;stroke-width:0.990211;stroke-linecap:butt;stroke-linejoin:miter;stroke:rgb(26.666667%,26.666667%,26.666667%);stroke-opacity:1;stroke-miterlimit:10;" d="M 524 131.871094 L 300 300.003906 "/>
<path style="fill:none;stroke-width:0.988738;stroke-linecap:butt;stroke-linejoin:miter;stroke:rgb(26.666667%,26.666667%,26.666667%);stroke-opacity:1;stroke-miterlimit:10;" d="M 536.792969 150.457031 L 300 300.003906 "/>
<path style="fill:none;stroke-width:0.981056;stroke-linecap:butt;stroke-linejoin:miter;stroke:rgb(26.666667%,26.666667%,26.666667%);stroke-opacity:1;stroke-miterlimit:10;" d="M 548.050781 170.015625 L 300 300.003906 "/>
<path style="fill:none;stroke-width:0.991233;stroke-linecap:butt;stroke-linejoin:miter;stroke:rgb(26.666667%,26.666667%,26.666667%);stroke-opacity:1;stroke-miterlimit:10;" d="M 557.699219 190.414063 L 300 300.003906 "/>
<path style="fill:none;stroke-width:0.987374;stroke-linecap:butt;stroke-linejoin:miter;stroke:rgb(26.666667%,26.666667%,26.666667%);stroke-opacity:1;stroke-miterlimit:10;" d="M 565.675781 211.527344 L 300 300.003906 "/>
<path style="fill:none;stroke-width:0.98486;stroke-linecap:butt;stroke-linejoin:miter;stroke:rgb(26.666667%,26.666667%,26.666667%);stroke-opacity:1;stroke-miterlimit:10;" d="M 571.929688 233.210938 L 300 300.003906 "/>
<path style="fill:none;stroke-width:0.985963;stroke-linecap:butt;stroke-linejoin:miter;stroke:rgb(26.666667%,26.666667%,26.666667%);stroke-opacity:1;stroke-miterlimit:10;" d="M 576.417969 255.332031 L 300 300.003906 "/>
<path style="fill:none;stroke-width:1;stroke-linecap:butt;stroke-linejoin:miter;stroke:rgb(26.666667%,26.666667%,26.666667%);stroke-opacity:1;stroke-miterlimit:10;" d="M 579.113281 277.738281 L 300 300.003906 "/>
<path style="fill:none;stroke-width:0.980388;stroke-linecap:butt;stroke-linejoin:miter;stroke:rgb(26.666667%,26.666667%,26.666667%);stroke-opacity:1;stroke-miterlimit:10;" d="M 325.605469 289.394531 C 325.605469 297.679688 318.890625 304.394531 310.605469 304.394531 C 302.324219 304.394531 295.605469 297.679688 295.605469 289.394531 C 295.605469 281.113281 302.324219 274.394531 310.605469 274.394531 C 318.890625 274.394531 325.605469 281.113281 325.605469 289.394531 "/>
<path style="fill-rule:nonzero;fill:rgb(0%,0%,100%);fill-opacity:1;stroke-width:1;stroke-linecap:butt;stroke-linejoin:miter;stroke:rgb(0%,0%,0%);stroke-opacity:1;stroke-miterlimit:10;" d="M 590 300.003906 C 590 305.527344 585.523438 310.003906 580 310.003906 C 574.476563 310.003906 570 305.527344 570 300.003906 C 570 294.480469 574.476563 290.003906 580 290.003906 C 585.523438 290.003906 590 294.480469 590 300.003906 "/>
<path style="fill-rule:nonzero;fill:rgb(0%,0%,100%);fill-opacity:1;stroke-width:1;stroke-linecap:butt;stroke-linejoin:miter;stroke:rgb(0%,0%,0%);stroke-opacity:1;stroke-miterlimit:10;" d="M 589.089844 322.554688 C 589.089844 328.078125 584.613281 332.554688 579.089844 332.554688 C 573.570313 332.554688 569.089844 328.078125 569.089844 322.554688 C 569.089844 317.03125 573.570313 312.554688 579.089844 312.554688 C 584.613281 312.554688 589.089844 317.03125 589.089844 322.554688 "/>
<path style="fill-rule:nonzero;fill:rgb(0%,0%,100%);fill-opacity:1;stroke-width:1;stroke-linecap:butt;stroke-linejoin:miter;stroke:rgb(0%,0%,0%);stroke-opacity:1;stroke-miterlimit:10;" d="M 586.371094 344.960938 C 586.371094 350.484375 581.894531 354.960938 576.371094 354.960938 C 570.851563 354.960938 566.371094 350.484375 566.371094 344.960938 C 566.371094 339.4375 570.851563 334.960938 576.371094 334.960938 C 581.894531 334.960938 586.371094 339.4375 586.371094 344.960938 "/>
<path style="fill-rule:nonzero;fill:rgb(0%,0%,100%);fill-opacity:1;stroke-width:1;stroke-linecap:butt;stroke-linejoin:miter;stroke:rgb(0%,0%,0%);stroke-opacity:1;stroke-miterlimit:10;" d="M 581.859375 367.074219 C 581.859375 372.597656 577.382813 377.074219 571.859375 377.074219 C 566.339844 377.074219 561.859375 372.597656 561.859375 367.074219 C 561.859375 361.550781 566.339844 357.074219 571.859375 357.074219 C 577.382813 357.074219 581.859375 361.550781 581.859375 367.074219 "/>
<path style="fill-rule:nonzero;fill:rgb(0%,0%,100%);fill-opacity:1;stroke-width:1;stroke-linecap:butt;stroke-linejoin:miter;stroke:rgb(0%,0%,0%);stroke-opacity:1;stroke-miterlimit:10;" d="M 575.585938 388.753906 C 575.585938 394.277344 571.109375 398.753906 565.585938 398.753906 C 560.0625 398.753906 555.585938 394.277344 555.585938 388.753906 C 555.585938 383.230469 560.0625 378.753906 565.585938 378.753906 C 571.109375 378.753906 575.585938 383.230469 575.585938 388.753906 "/>
<path style="fill-rule:nonzero;fill:rgb(0%,0%,100%);fill-opacity:1;stroke-width:1;stroke-linecap:butt;stroke-linejoin:miter;stroke:rgb(0%,0%,0%);stroke-opacity:1;stroke-miterlimit:10;" d="M 567.585938 409.859375 C 567.585938 415.378906 563.109375 419.859375 557.585938 419.859375 C 552.0625 419.859375 547.585938 415.378906 547.585938 409.859375 C 547.585938 404.335938 552.0625 399.859375 557.585938 399.859375 C 563.109375 399.859375 567.585938 404.335938 567.585938 409.859375 "/>
<path style="fill-rule:nonzero;fill:rgb(0%,0%,100%);fill-opacity:1;stroke-width:1;stroke-linecap:butt;stroke-linejoin:miter;stroke:rgb(0%,0%,0%);stroke-opacity:1;stroke-miterlimit:10;" d="M 557.917969 430.246094 C 557.917969 435.769531 553.441406 440.246094 547.917969 440.246094 C 542.394531 440.246094 537.917969 435.769531 537.917969 430.246094 C 537.917969 424.726563 542.394531 420.246094 547.917969 420.246094 C 553.441406 420.246094 557.917969 424.726563 557.917969 430.246094 "/>
<path style="fill-rule:nonzero;fill:rgb(0%,0%,100%);fill-opacity:1;stroke-width:1;stroke-linecap:butt;stroke-linejoin:miter;stroke:rgb(0%,0%,0%);stroke-opacity:1;stroke-miterlimit:10;" d="M 546.640625 449.792969 C 546.640625 455.316406 542.164063 459.792969 536.640625 459.792969 C 531.117188 459.792969 526.640625 455.316406 526.640625 449.792969 C 526.640625 444.269531 531.117188 439.792969 536.640625 439.792969 C 542.164063 439.792969 546.640625 444.269531 546.640625 449.792969 "/>
<path style="fill-rule:nonzero;fill:rgb(0%,0%,100%);fill-opacity:1;stroke-width:1;stroke-linecap:butt;stroke-linejoin:miter;stroke:rgb(0%,0%,0%);stroke-opacity:1;stroke-miterlimit:10;" d="M 533.824219 468.367188 C 533.824219 473.890625 529.347656 478.367188 523.824219 478.367188 C 518.304688 478.367188 513.824219 473.890625 513.824219 468.367188 C 513.824219 462.84375 518.304688 458.367188 523.824219 458.367188 C 529.347656 458.367188 533.824219 462.84375 533.824219 468.367188 "/>
<path style="fill-rule:nonzero;fill:rgb(0%,0%,100%);fill-opacity:1;stroke-width:1;stroke-linecap:butt;stroke-linejoin:miter;stroke:rgb(0%,0%,0%);stroke-opacity:1;stroke-miterlimit:10;" d="M 519.5625 485.847656 C 519.5625 491.371094 515.082031 495.847656 509.5625 495.847656 C 504.039063 495.847656 499.5625 491.371094 499.5625 485.847656 C 499.5625 480.328125 504.039063 475.847656 509.5625 475.847656 C 515.082031 475.847656 519.5625 480.328125 519.5625 485.847656 "/>
<path style="fill-rule:nonzero;fill:rgb(0%,0%,100%);fill-opacity:1;stroke-width:1;stroke-linecap:butt;stroke-linejoin:miter;stroke:rgb(0%,0%,0%);stroke-opacity:1;stroke-miterlimit:10;" d="M 503.9375 502.125 C 503.9375 507.648438 499.457031 512.125 493.9375 512.125 C 488.414063 512.125 483.9375 507.648438 483.9375 502.125 C 483.9375 496.601563 488.414063 492.125 493.9375 492.125 C 499.457031 492.125 503.9375 496.601563 503.9375 502.125 "/>
<path style="fill-rule:nonzero;fill:rgb(0%,0%,100%);fill-opacity:1;stroke-width:1;stroke-linecap:butt;stroke-linejoin:miter;stroke:rgb(0%,0%,0%);stroke-opacity:1;stroke-miterlimit:10;" d="M 487.054688 517.089844 C 487.054688 522.613281 482.574219 527.089844 477.054688 527.089844 C 471.53125 527.089844 467.054688 522.613281 467.054688 517.089844 C 467.054688 511.566406 471.53125 507.089844 477.054688 507.089844 C 482.574219 507.089844 487.054688 511.566406 487.054688 517.089844 "/>
<path style="fill-rule:nonzero;fill:rgb(0%,0%,100%);fill-opacity:1;stroke-width:1;stroke-linecap:butt;stroke-linejoin:miter;stroke:rgb(0%,0%,0%);stroke-opacity:1;stroke-miterlimit:10;" d="M 469.023438 530.644531 C 469.023438 536.167969 464.542969 540.644531 459.023438 540.644531 C 453.5 540.644531 449.023438 536.167969 449.023438 530.644531 C 449.023438 525.125 453.5 520.644531 459.023438 520.644531 C 464.542969 520.644531 469.023438 525.125 469.023438 530.644531 "/>
<path style="fill-rule:nonzero;fill:rgb(0%,0%,100%);fill-opacity:1;stroke-width:1;stroke-linecap:butt;stroke-linejoin:miter;stroke:rgb(0%,0%,0%);stroke-opacity:1;stroke-miterlimit:10;" d="M 449.957031 542.707031 C 449.957031 548.230469 445.480469 552.707031 439.957031 552.707031 C 434.433594 552.707031 429.957031 548.230469 429.957031 542.707031 C 429.957031 537.183594 434.433594 532.707031 439.957031 532.707031 C 445.480469 532.707031 449.957031 537.183594 449.957031 542.707031 "/>
<path style="fill-rule:nonzero;fill:rgb(100%,64.705882%,0%);fill-opacity:1;stroke-width:1;stroke-linecap:butt;stroke-linejoin:miter;stroke:rgb(0%,0%,0%);stroke-opacity:1;stroke-miterlimit:10;" d="M 429.988281 553.191406 C 429.988281 558.714844 425.511719 563.191406 419.988281 563.191406 C 414.464844 563.191406 409.988281 558.714844 409.988281 553.191406 C 409.988281 547.667969 414.464844 543.191406 419.988281 543.191406 C 425.511719 543.191406 429.988281 547.667969 429.988281 553.191406 "/>
<path style="fill-rule:nonzero;fill:rgb(0%,0%,100%);fill-opacity:1;stroke-width:1;stroke-linecap:butt;stroke-linejoin:miter;stroke:rgb(0%,0%,0%);stroke-opacity:1;stroke-miterlimit:10;" d="M 409.238281 562.035156 C 409.238281 567.558594 404.761719 572.035156 399.238281 572.035156 C 393.714844 572.035156 389.238281 567.558594 389.238281 562.035156 C 389.238281 556.511719 393.714844 552.035156 399.238281 552.035156 C 404.761719 552.035156 409.238281 556.511719 409.238281 562.035156 "/>
<path style="fill-rule:nonzero;fill:rgb(0%,0%,100%);fill-opacity:1;stroke-width:1;stroke-linecap:butt;stroke-linejoin:miter;stroke:rgb(0%,0%,0%);stroke-opacity:1;stroke-miterlimit:10;" d="M 387.84375 569.175781 C 387.84375 574.699219 383.367188 579.175781 377.84375 579.175781 C 372.320313 579.175781 367.84375 574.699219 367.84375 569.175781 C 367.84375 563.65625 372.320313 559.175781 377.84375 559.175781 C 383.367188 559.175781 387.84375 563.65625 387.84375 569.175781 "/>
<path style="fill-rule:nonzero;fill:rgb(0%,0%,100%);fill-opacity:1;stroke-width:1;stroke-linecap:butt;stroke-linejoin:miter;stroke:rgb(0%,0%,0%);stroke-opacity:1;stroke-miterlimit:10;" d="M 365.945313 574.574219 C 365.945313 580.097656 361.46875 584.574219 355.945313 584.574219 C 350.421875 584.574219 345.945313 580.097656 345.945313 574.574219 C 345.945313 569.050781 350.421875 564.574219 355.945313 564.574219 C 361.46875 564.574219 365.945313 569.050781 365.945313 574.574219 "/>
<path style="fill-rule:nonzero;fill:rgb(0%,0%,100%);fill-opacity:1;stroke-width:1;stroke-linecap:butt;stroke-linejoin:miter;stroke:rgb(0%,0%,0%);stroke-opacity:1;stroke-miterlimit:10;" d="M 343.683594 578.1875 C 343.683594 583.710938 339.207031 588.1875 333.683594 588.1875 C 328.160156 588.1875 323.683594 583.710938 323.683594 578.1875 C 323.683594 572.667969 328.160156 568.1875 333.683594 568.1875 C 339.207031 568.1875 343.683594 572.667969 343.683594 578.1875 "/>
<path style="fill-rule:nonzero;fill:rgb(0%,0%,100%);fill-opacity:1;stroke-width:1;stroke-linecap:butt;stroke-linejoin:miter;stroke:rgb(0%,0%,0%);stroke-opacity:1;stroke-miterlimit:10;" d="M 321.203125 580 C 321.203125 585.523438 316.726563 590 311.203125 590 C 305.679688 590 301.203125 585.523438 301.203125 580 C 301.203125 574.476563 305.679688 570 311.203125 570 C 316.726563 570 321.203125 574.476563 321.203125 580 "/>
<path style="fill-rule:nonzero;fill:rgb(0%,0%,100%);fill-opacity:1;stroke-width:1;stroke-linecap:butt;stroke-linejoin:miter;stroke:rgb(0%,0%,0%);stroke-opacity:1;stroke-miterlimit:10;" d="M 298.652344 579.996094 C 298.652344 585.515625 294.175781 589.996094 288.652344 589.996094 C 283.128906 589.996094 278.652344 585.515625 278.652344 579.996094 C 278.652344 574.472656 283.128906 569.996094 288.652344 569.996094 C 294.175781 569.996094 298.652344 574.472656 298.652344 579.996094 "/>
<path style="fill-rule:nonzero;fill:rgb(100%,64.705882%,0%);fill-opacity:1;stroke-width:1;stroke-linecap:butt;stroke-linejoin:miter;stroke:rgb(0%,0%,0%);stroke-opacity:1;stroke-miterlimit:10;" d="M 276.171875 578.171875 C 276.171875 583.695313 271.695313 588.171875 266.171875 588.171875 C 260.648438 588.171875 256.171875 583.695313 256.171875 578.171875 C 256.171875 572.648438 260.648438 568.171875 266.171875 568.171875 C 271.695313 568.171875 276.171875 572.648438 276.171875 578.171875 "/>
<path style="fill-rule:nonzero;fill:rgb(100%,75.294118%,79.607843%);fill-opacity:1;stroke-width:1;stroke-linecap:butt;stroke-linejoin:miter;stroke:rgb(0%,0%,0%);stroke-opacity:1;stroke-miterlimit:10;" d="M 253.914063 574.546875 C 253.914063 580.066406 249.4375 584.546875 243.914063 584.546875 C 238.390625 584.546875 233.914063 580.066406 233.914063 574.546875 C 233.914063 569.023438 238.390625 564.546875 243.914063 564.546875 C 249.4375 564.546875 253.914063 569.023438 253.914063 574.546875 "/>
<path style="fill-rule:nonzero;fill:rgb(0%,0%,100%);fill-opacity:1;stroke-width:1;stroke-linecap:butt;stroke-linejoin:miter;stroke:rgb(0%,0%,0%);stroke-opacity:1;stroke-miterlimit:10;" d="M 232.015625 569.136719 C 232.015625 574.660156 227.539063 579.136719 222.015625 579.136719 C 216.496094 579.136719 212.015625 574.660156 212.015625 569.136719 C 212.015625 563.613281 216.496094 559.136719 222.015625 559.136719 C 227.539063 559.136719 232.015625 563.613281 232.015625 569.136719 "/>
<path style="fill-rule:nonzero;fill:rgb(0%,0%,100%);fill-opacity:1;stroke-width:1;stroke-linecap:butt;stroke-linejoin:miter;stroke:rgb(0%,0%,0%);stroke-opacity:1;stroke-miterlimit:10;" d="M 210.628906 561.984375 C 210.628906 567.503906 206.148438 571.984375 200.628906 571.984375 C 195.105469 571.984375 190.628906 567.503906 190.628906 561.984375 C 190.628906 556.460938 195.105469 551.984375 200.628906 551.984375 C 206.148438 551.984375 210.628906 556.460938 210.628906 561.984375 "/>
<path style="fill-rule:nonzero;fill:rgb(0%,0%,100%);fill-opacity:1;stroke-width:1;stroke-linecap:butt;stroke-linejoin:miter;stroke:rgb(0%,0%,0%);stroke-opacity:1;stroke-miterlimit:10;" d="M 189.882813 553.128906 C 189.882813 558.652344 185.40625 563.128906 179.882813 563.128906 C 174.359375 563.128906 169.882813 558.652344 169.882813 553.128906 C 169.882813 547.605469 174.359375 543.128906 179.882813 543.128906 C 185.40625 543.128906 189.882813 547.605469 189.882813 553.128906 "/>
<path style="fill-rule:nonzero;fill:rgb(0%,0%,100%);fill-opacity:1;stroke-width:1;stroke-linecap:butt;stroke-linejoin:miter;stroke:rgb(0%,0%,0%);stroke-opacity:1;stroke-miterlimit:10;" d="M 169.917969 542.632813 C 169.917969 548.15625 165.4375 552.632813 159.917969 552.632813 C 154.394531 552.632813 149.917969 548.15625 149.917969 542.632813 C 149.917969 537.109375 154.394531 532.632813 159.917969 532.632813 C 165.4375 532.632813 169.917969 537.109375 169.917969 542.632813 "/>
<path style="fill-rule:nonzero;fill:rgb(0%,0%,100%);fill-opacity:1;stroke-width:1;stroke-linecap:butt;stroke-linejoin:miter;stroke:rgb(0%,0%,0%);stroke-opacity:1;stroke-miterlimit:10;" d="M 150.859375 530.5625 C 150.859375 536.085938 146.382813 540.5625 140.859375 540.5625 C 135.335938 540.5625 130.859375 536.085938 130.859375 530.5625 C 130.859375 525.039063 135.335938 520.5625 140.859375 520.5625 C 146.382813 520.5625 150.859375 525.039063 150.859375 530.5625 "/>
<path style="fill-rule:nonzero;fill:rgb(0%,0%,100%);fill-opacity:1;stroke-width:1;stroke-linecap:butt;stroke-linejoin:miter;stroke:rgb(0%,0%,0%);stroke-opacity:1;stroke-miterlimit:10;" d="M 132.835938 517 C 132.835938 522.519531 128.359375 527 122.835938 527 C 117.3125 527 112.835938 522.519531 112.835938 517 C 112.835938 511.476563 117.3125 507 122.835938 507 C 128.359375 507 132.835938 511.476563 132.835938 517 "/>
<path style="fill-rule:nonzero;fill:rgb(0%,0%,100%);fill-opacity:1;stroke-width:1;stroke-linecap:butt;stroke-linejoin:miter;stroke:rgb(0%,0%,0%);stroke-opacity:1;stroke-miterlimit:10;" d="M 115.960938 502.023438 C 115.960938 507.546875 111.484375 512.023438 105.960938 512.023438 C 100.4375 512.023438 95.960938 507.546875 95.960938 502.023438 C 95.960938 496.5 100.4375 492.023438 105.960938 492.023438 C 111.484375 492.023438 115.960938 496.5 115.960938 502.023438 "/>
<path style="fill-rule:nonzero;fill:rgb(0%,0%,100%);fill-opacity:1;stroke-width:1;stroke-linecap:butt;stroke-linejoin:miter;stroke:rgb(0%,0%,0%);stroke-opacity:1;stroke-miterlimit:10;" d="M 100.34375 485.742188 C 100.34375 491.261719 95.867188 495.742188 90.34375 495.742188 C 84.820313 495.742188 80.34375 491.261719 80.34375 485.742188 C 80.34375 480.21875 84.820313 475.742188 90.34375 475.742188 C 95.867188 475.742188 100.34375 480.21875 100.34375 485.742188 "/>
<path style="fill-rule:nonzero;fill:rgb(100%,75.294118%,79.607843%);fill-opacity:1;stroke-width:1;stroke-linecap:butt;stroke-linejoin:miter;stroke:rgb(0%,0%,0%);stroke-opacity:1;stroke-miterlimit:10;" d="M 86.085938 468.25 C 86.085938 473.773438 81.609375 478.25 76.085938 478.25 C 70.5625 478.25 66.085938 473.773438 66.085938 468.25 C 66.085938 462.730469 70.5625 458.25 76.085938 458.25 C 81.609375 458.25 86.085938 462.730469 86.085938 468.25 "/>
<path style="fill-rule:nonzero;fill:rgb(0%,0%,100%);fill-opacity:1;stroke-width:1;stroke-linecap:butt;stroke-linejoin:miter;stroke:rgb(0%,0%,0%);stroke-opacity:1;stroke-miterlimit:10;" d="M 73.285156 449.671875 C 73.285156 455.195313 68.804688 459.671875 63.285156 459.671875 C 57.761719 459.671875 53.285156 455.195313 53.285156 449.671875 C 53.285156 444.148438 57.761719 439.671875 63.285156 439.671875 C 68.804688 439.671875 73.285156 444.148438 73.285156 449.671875 "/>
<path style="fill-rule:nonzero;fill:rgb(0%,0%,100%);fill-opacity:1;stroke-width:1;stroke-linecap:butt;stroke-linejoin:miter;stroke:rgb(0%,0%,0%);stroke-opacity:1;stroke-miterlimit:10;" d="M 62.015625 430.121094 C 62.015625 435.644531 57.539063 440.121094 52.015625 440.121094 C 46.492188 440.121094 42.015625 435.644531 42.015625 430.121094 C 42.015625 424.597656 46.492188 420.121094 52.015625 420.121094 C 57.539063 420.121094 62.015625 424.597656 62.015625 430.121094 "/>
<path style="fill-rule:nonzero;fill:rgb(0%,100%,0%);fill-opacity:1;stroke-width:1;stroke-linecap:butt;stroke-linejoin:miter;stroke:rgb(0%,0%,0%);stroke-opacity:1;stroke-miterlimit:10;" d="M 52.355469 409.722656 C 52.355469 415.246094 47.878906 419.722656 42.355469 419.722656 C 36.832031 419.722656 32.355469 415.246094 32.355469 409.722656 C 32.355469 404.203125 36.832031 399.722656 42.355469 399.722656 C 47.878906 399.722656 52.355469 404.203125 52.355469 409.722656 "/>
<path style="fill-rule:nonzero;fill:rgb(0%,0%,100%);fill-opacity:1;stroke-width:1;stroke-linecap:butt;stroke-linejoin:miter;stroke:rgb(0%,0%,0%);stroke-opacity:1;stroke-miterlimit:10;" d="M 44.367188 388.617188 C 44.367188 394.140625 39.890625 398.617188 34.367188 398.617188 C 28.847656 398.617188 24.367188 394.140625 24.367188 388.617188 C 24.367188 383.09375 28.847656 378.617188 34.367188 378.617188 C 39.890625 378.617188 44.367188 383.09375 44.367188 388.617188 "/>
<path style="fill-rule:nonzero;fill:rgb(0%,0%,100%);fill-opacity:1;stroke-width:1;stroke-linecap:butt;stroke-linejoin:miter;stroke:rgb(0%,0%,0%);stroke-opacity:1;stroke-miterlimit:10;" d="M 38.105469 366.933594 C 38.105469 372.457031 33.628906 376.933594 28.105469 376.933594 C 22.582031 376.933594 18.105469 372.457031 18.105469 366.933594 C 18.105469 361.410156 22.582031 356.933594 28.105469 356.933594 C 33.628906 356.933594 38.105469 361.410156 38.105469 366.933594 "/>
<path style="fill-rule:nonzero;fill:rgb(0%,0%,100%);fill-opacity:1;stroke-width:1;stroke-linecap:butt;stroke-linejoin:miter;stroke:rgb(0%,0%,0%);stroke-opacity:1;stroke-miterlimit:10;" d="M 33.605469 344.816406 C 33.605469 350.339844 29.125 354.816406 23.605469 354.816406 C 18.082031 354.816406 13.605469 350.339844 13.605469 344.816406 C 13.605469 339.296875 18.082031 334.816406 23.605469 334.816406 C 29.125 334.816406 33.605469 339.296875 33.605469 344.816406 "/>
<path style="fill-rule:nonzero;fill:rgb(0%,0%,100%);fill-opacity:1;stroke-width:1;stroke-linecap:butt;stroke-linejoin:miter;stroke:rgb(0%,0%,0%);stroke-opacity:1;stroke-miterlimit:10;" d="M 30.898438 322.410156 C 30.898438 327.933594 26.417969 332.410156 20.898438 332.410156 C 15.375 332.410156 10.898438 327.933594 10.898438 322.410156 C 10.898438 316.886719 15.375 312.410156 20.898438 312.410156 C 26.417969 312.410156 30.898438 316.886719 30.898438 322.410156 "/>
<path style="fill-rule:nonzero;fill:rgb(0%,0%,100%);fill-opacity:1;stroke-width:1;stroke-linecap:butt;stroke-linejoin:miter;stroke:rgb(0%,0%,0%);stroke-opacity:1;stroke-miterlimit:10;" d="M 30 299.859375 C 30 305.382813 25.523438 309.859375 20 309.859375 C 14.476563 309.859375 10 305.382813 10 299.859375 C 10 294.335938 14.476563 289.859375 20 289.859375 C 25.523438 289.859375 30 294.335938 30 299.859375 "/>
<path style="fill-rule:nonzero;fill:rgb(0%,0%,100%);fill-opacity:1;stroke-width:1;stroke-linecap:butt;stroke-linejoin:miter;stroke:rgb(0%,0%,0%);stroke-opacity:1;stroke-miterlimit:10;" d="M 30.917969 277.304688 C 30.917969 282.828125 26.441406 287.304688 20.917969 287.304688 C 15.398438 287.304688 10.917969 282.828125 10.917969 277.304688 C 10.917969 271.785156 15.398438 267.304688 20.917969 267.304688 C 26.441406 267.304688 30.917969 271.785156 30.917969 277.304688 "/>
<path style="fill-rule:nonzero;fill:rgb(0%,100%,0%);fill-opacity:1;stroke-width:1;stroke-linecap:butt;stroke-linejoin:miter;stroke:rgb(0%,0%,0%);stroke-opacity:1;stroke-miterlimit:10;" d="M 33.648438 254.902344 C 33.648438 260.425781 29.171875 264.902344 23.648438 264.902344 C 18.128906 264.902344 13.648438 260.425781 13.648438 254.902344 C 13.648438 249.378906 18.128906 244.902344 23.648438 244.902344 C 29.171875 244.902344 33.648438 249.378906 33.648438 254.902344 "/>
<path style="fill-rule:nonzero;fill:rgb(0%,0%,100%);fill-opacity:1;stroke-width:1;stroke-linecap:butt;stroke-linejoin:miter;stroke:rgb(0%,0%,0%);stroke-opacity:1;stroke-miterlimit:10;" d="M 38.171875 232.789063 C 38.171875 238.3125 33.695313 242.789063 28.171875 242.789063 C 22.652344 242.789063 18.171875 238.3125 18.171875 232.789063 C 18.171875 227.265625 22.652344 222.789063 28.171875 222.789063 C 33.695313 222.789063 38.171875 227.265625 38.171875 232.789063 "/>
<path style="fill-rule:nonzero;fill:rgb(0%,0%,100%);fill-opacity:1;stroke-width:1;stroke-linecap:butt;stroke-linejoin:miter;stroke:rgb(0%,0%,0%);stroke-opacity:1;stroke-miterlimit:10;" d="M 44.460938 211.113281 C 44.460938 216.636719 39.984375 221.113281 34.460938 221.113281 C 28.9375 221.113281 24.460938 216.636719 24.460938 211.113281 C 24.460938 205.589844 28.9375 201.113281 34.460938 201.113281 C 39.984375 201.113281 44.460938 205.589844 44.460938 211.113281 "/>
<path style="fill-rule:nonzero;fill:rgb(0%,0%,100%);fill-opacity:1;stroke-width:1;stroke-linecap:butt;stroke-linejoin:miter;stroke:rgb(0%,0%,0%);stroke-opacity:1;stroke-miterlimit:10;" d="M 52.46875 190.015625 C 52.46875 195.539063 47.992188 200.015625 42.46875 200.015625 C 36.945313 200.015625 32.46875 195.539063 32.46875 190.015625 C 32.46875 184.492188 36.945313 180.015625 42.46875 180.015625 C 47.992188 180.015625 52.46875 184.492188 52.46875 190.015625 "/>
<path style="fill-rule:nonzero;fill:rgb(0%,0%,100%);fill-opacity:1;stroke-width:1;stroke-linecap:butt;stroke-linejoin:miter;stroke:rgb(0%,0%,0%);stroke-opacity:1;stroke-miterlimit:10;" d="M 62.148438 169.628906 C 62.148438 175.152344 57.671875 179.628906 52.148438 179.628906 C 46.628906 179.628906 42.148438 175.152344 42.148438 169.628906 C 42.148438 164.105469 46.628906 159.628906 52.148438 159.628906 C 57.671875 159.628906 62.148438 164.105469 62.148438 169.628906 "/>
<path style="fill-rule:nonzero;fill:rgb(0%,0%,100%);fill-opacity:1;stroke-width:1;stroke-linecap:butt;stroke-linejoin:miter;stroke:rgb(0%,0%,0%);stroke-opacity:1;stroke-miterlimit:10;" d="M 73.4375 150.089844 C 73.4375 155.613281 68.960938 160.089844 63.4375 160.089844 C 57.914063 160.089844 53.4375 155.613281 53.4375 150.089844 C 53.4375 144.566406 57.914063 140.089844 63.4375 140.089844 C 68.960938 140.089844 73.4375 144.566406 73.4375 150.089844 "/>
<path style="fill-rule:nonzero;fill:rgb(0%,0%,100%);fill-opacity:1;stroke-width:1;stroke-linecap:butt;stroke-linejoin:miter;stroke:rgb(0%,0%,0%);stroke-opacity:1;stroke-miterlimit:10;" d="M 86.261719 131.523438 C 86.261719 137.046875 81.785156 141.523438 76.261719 141.523438 C 70.738281 141.523438 66.261719 137.046875 66.261719 131.523438 C 66.261719 126 70.738281 121.523438 76.261719 121.523438 C 81.785156 121.523438 86.261719 126 86.261719 131.523438 "/>
<path style="fill-rule:nonzero;fill:rgb(0%,0%,100%);fill-opacity:1;stroke-width:1;stroke-linecap:butt;stroke-linejoin:miter;stroke:rgb(0%,0%,0%);stroke-opacity:1;stroke-miterlimit:10;" d="M 100.535156 114.046875 C 100.535156 119.570313 96.058594 124.046875 90.535156 124.046875 C 85.011719 124.046875 80.535156 119.570313 80.535156 114.046875 C 80.535156 108.527344 85.011719 104.046875 90.535156 104.046875 C 96.058594 104.046875 100.535156 108.527344 100.535156 114.046875 "/>
<path style="fill-rule:nonzero;fill:rgb(0%,0%,100%);fill-opacity:1;stroke-width:1;stroke-linecap:butt;stroke-linejoin:miter;stroke:rgb(0%,0%,0%);stroke-opacity:1;stroke-miterlimit:10;" d="M 116.167969 97.78125 C 116.167969 103.304688 111.691406 107.78125 106.167969 107.78125 C 100.644531 107.78125 96.167969 103.304688 96.167969 97.78125 C 96.167969 92.257813 100.644531 87.78125 106.167969 87.78125 C 111.691406 87.78125 116.167969 92.257813 116.167969 97.78125 "/>
<path style="fill-rule:nonzero;fill:rgb(0%,0%,100%);fill-opacity:1;stroke-width:1;stroke-linecap:butt;stroke-linejoin:miter;stroke:rgb(0%,0%,0%);stroke-opacity:1;stroke-miterlimit:10;" d="M 133.058594 82.824219 C 133.058594 88.347656 128.582031 92.824219 123.058594 92.824219 C 117.535156 92.824219 113.058594 88.347656 113.058594 82.824219 C 113.058594 77.300781 117.535156 72.824219 123.058594 72.824219 C 128.582031 72.824219 133.058594 77.300781 133.058594 82.824219 "/>
<path style="fill-rule:nonzero;fill:rgb(0%,0%,100%);fill-opacity:1;stroke-width:1;stroke-linecap:butt;stroke-linejoin:miter;stroke:rgb(0%,0%,0%);stroke-opacity:1;stroke-miterlimit:10;" d="M 151.097656 69.277344 C 151.097656 74.800781 146.621094 79.277344 141.097656 79.277344 C 135.574219 79.277344 131.097656 74.800781 131.097656 69.277344 C 131.097656 63.753906 135.574219 59.277344 141.097656 59.277344 C 146.621094 59.277344 151.097656 63.753906 151.097656 69.277344 "/>
<path style="fill-rule:nonzero;fill:rgb(0%,0%,100%);fill-opacity:1;stroke-width:1;stroke-linecap:butt;stroke-linejoin:miter;stroke:rgb(0%,0%,0%);stroke-opacity:1;stroke-miterlimit:10;" d="M 170.167969 57.226563 C 170.167969 62.75 165.691406 67.226563 160.167969 67.226563 C 154.644531 67.226563 150.167969 62.75 150.167969 57.226563 C 150.167969 51.703125 154.644531 47.226563 160.167969 47.226563 C 165.691406 47.226563 170.167969 51.703125 170.167969 57.226563 "/>
<path style="fill-rule:nonzero;fill:rgb(0%,0%,100%);fill-opacity:1;stroke-width:1;stroke-linecap:butt;stroke-linejoin:miter;stroke:rgb(0%,0%,0%);stroke-opacity:1;stroke-miterlimit:10;" d="M 190.144531 46.753906 C 190.144531 52.273438 185.667969 56.753906 180.144531 56.753906 C 174.621094 56.753906 170.144531 52.273438 170.144531 46.753906 C 170.144531 41.230469 174.621094 36.753906 180.144531 36.753906 C 185.667969 36.753906 190.144531 41.230469 190.144531 46.753906 "/>
<path style="fill-rule:nonzero;fill:rgb(0%,0%,100%);fill-opacity:1;stroke-width:1;stroke-linecap:butt;stroke-linejoin:miter;stroke:rgb(0%,0%,0%);stroke-opacity:1;stroke-miterlimit:10;" d="M 210.898438 37.921875 C 210.898438 43.441406 206.421875 47.921875 200.898438 47.921875 C 195.375 47.921875 190.898438 43.441406 190.898438 37.921875 C 190.898438 32.398438 195.375 27.921875 200.898438 27.921875 C 206.421875 27.921875 210.898438 32.398438 210.898438 37.921875 "/>
<path style="fill-rule:nonzero;fill:rgb(0%,0%,100%);fill-opacity:1;stroke-width:1;stroke-linecap:butt;stroke-linejoin:miter;stroke:rgb(0%,0%,0%);stroke-opacity:1;stroke-miterlimit:10;" d="M 232.296875 30.789063 C 232.296875 36.3125 227.816406 40.789063 222.296875 40.789063 C 216.773438 40.789063 212.296875 36.3125 212.296875 30.789063 C 212.296875 25.265625 216.773438 20.789063 222.296875 20.789063 C 227.816406 20.789063 232.296875 25.265625 232.296875 30.789063 "/>
<path style="fill-rule:nonzero;fill:rgb(0%,0%,100%);fill-opacity:1;stroke-width:1;stroke-linecap:butt;stroke-linejoin:miter;stroke:rgb(0%,0%,0%);stroke-opacity:1;stroke-miterlimit:10;" d="M 254.195313 25.402344 C 254.195313 30.925781 249.71875 35.402344 244.195313 35.402344 C 238.671875 35.402344 234.195313 30.925781 234.195313 25.402344 C 234.195313 19.878906 238.671875 15.402344 244.195313 15.402344 C 249.71875 15.402344 254.195313 19.878906 254.195313 25.402344 "/>
<path style="fill-rule:nonzero;fill:rgb(0%,0%,100%);fill-opacity:1;stroke-width:1;stroke-linecap:butt;stroke-linejoin:miter;stroke:rgb(0%,0%,0%);stroke-opacity:1;stroke-miterlimit:10;" d="M 276.460938 21.800781 C 276.460938 27.320313 271.980469 31.800781 266.460938 31.800781 C 260.9375 31.800781 256.460938 27.320313 256.460938 21.800781 C 256.460938 16.277344 260.9375 11.800781 266.460938 11.800781 C 271.980469 11.800781 276.460938 16.277344 276.460938 21.800781 "/>
<path style="fill-rule:nonzero;fill:rgb(0%,0%,100%);fill-opacity:1;stroke-width:1;stroke-linecap:butt;stroke-linejoin:miter;stroke:rgb(0%,0%,0%);stroke-opacity:1;stroke-miterlimit:10;" d="M 298.941406 20 C 298.941406 25.523438 294.464844 30 288.941406 30 C 283.417969 30 278.941406 25.523438 278.941406 20 C 278.941406 14.476563 283.417969 10 288.941406 10 C 294.464844 10 298.941406 14.476563 298.941406 20 "/>
<path style="fill-rule:nonzero;fill:rgb(0%,0%,100%);fill-opacity:1;stroke-width:1;stroke-linecap:butt;stroke-linejoin:miter;stroke:rgb(0%,0%,0%);stroke-opacity:1;stroke-miterlimit:10;" d="M 321.492188 20.015625 C 321.492188 25.539063 317.015625 30.015625 311.492188 30.015625 C 305.96875 30.015625 301.492188 25.539063 301.492188 20.015625 C 301.492188 14.496094 305.96875 10.015625 311.492188 10.015625 C 317.015625 10.015625 321.492188 14.496094 321.492188 20.015625 "/>
<path style="fill-rule:nonzero;fill:rgb(100%,64.705882%,0%);fill-opacity:1;stroke-width:1;stroke-linecap:butt;stroke-linejoin:miter;stroke:rgb(0%,0%,0%);stroke-opacity:1;stroke-miterlimit:10;" d="M 343.972656 21.851563 C 343.972656 27.375 339.492188 31.851563 333.972656 31.851563 C 328.449219 31.851563 323.972656 27.375 323.972656 21.851563 C 323.972656 16.328125 328.449219 11.851563 333.972656 11.851563 C 339.492188 11.851563 343.972656 16.328125 343.972656 21.851563 "/>
<path style="fill-rule:nonzero;fill:rgb(100%,64.705882%,0%);fill-opacity:1;stroke-width:1;stroke-linecap:butt;stroke-linejoin:miter;stroke:rgb(0%,0%,0%);stroke-opacity:1;stroke-miterlimit:10;" d="M 366.230469 25.488281 C 366.230469 31.011719 361.75 35.488281 356.230469 35.488281 C 350.707031 35.488281 346.230469 31.011719 346.230469 25.488281 C 346.230469 19.96875 350.707031 15.488281 356.230469 15.488281 C 361.75 15.488281 366.230469 19.96875 366.230469 25.488281 "/>
<path style="fill-rule:nonzero;fill:rgb(0%,100%,0%);fill-opacity:1;stroke-width:1;stroke-linecap:butt;stroke-linejoin:miter;stroke:rgb(0%,0%,0%);stroke-opacity:1;stroke-miterlimit:10;" d="M 388.121094 30.910156 C 388.121094 36.433594 383.644531 40.910156 378.121094 40.910156 C 372.597656 40.910156 368.121094 36.433594 368.121094 30.910156 C 368.121094 25.386719 372.597656 20.910156 378.121094 20.910156 C 383.644531 20.910156 388.121094 25.386719 388.121094 30.910156 "/>
<path style="fill-rule:nonzero;fill:rgb(0%,0%,100%);fill-opacity:1;stroke-width:1;stroke-linecap:butt;stroke-linejoin:miter;stroke:rgb(0%,0%,0%);stroke-opacity:1;stroke-miterlimit:10;" d="M 409.507813 38.074219 C 409.507813 43.597656 405.03125 48.074219 399.507813 48.074219 C 393.984375 48.074219 389.507813 43.597656 389.507813 38.074219 C 389.507813 32.550781 393.984375 28.074219 399.507813 28.074219 C 405.03125 28.074219 409.507813 32.550781 409.507813 38.074219 "/>
<path style="fill-rule:nonzero;fill:rgb(0%,0%,100%);fill-opacity:1;stroke-width:1;stroke-linecap:butt;stroke-linejoin:miter;stroke:rgb(0%,0%,0%);stroke-opacity:1;stroke-miterlimit:10;" d="M 430.25 46.9375 C 430.25 52.460938 425.769531 56.9375 420.25 56.9375 C 414.726563 56.9375 410.25 52.460938 410.25 46.9375 C 410.25 41.414063 414.726563 36.9375 420.25 36.9375 C 425.769531 36.9375 430.25 41.414063 430.25 46.9375 "/>
<path style="fill-rule:nonzero;fill:rgb(0%,0%,100%);fill-opacity:1;stroke-width:1;stroke-linecap:butt;stroke-linejoin:miter;stroke:rgb(0%,0%,0%);stroke-opacity:1;stroke-miterlimit:10;" d="M 450.207031 57.445313 C 450.207031 62.96875 445.730469 67.445313 440.207031 67.445313 C 434.6875 67.445313 430.207031 62.96875 430.207031 57.445313 C 430.207031 51.921875 434.6875 47.445313 440.207031 47.445313 C 445.730469 47.445313 450.207031 51.921875 450.207031 57.445313 "/>
<path style="fill-rule:nonzero;fill:rgb(0%,0%,100%);fill-opacity:1;stroke-width:1;stroke-linecap:butt;stroke-linejoin:miter;stroke:rgb(0%,0%,0%);stroke-opacity:1;stroke-miterlimit:10;" d="M 469.257813 69.523438 C 469.257813 75.046875 464.78125 79.523438 459.257813 79.523438 C 453.738281 79.523438 449.257813 75.046875 449.257813 69.523438 C 449.257813 64 453.738281 59.523438 459.257813 59.523438 C 464.78125 59.523438 469.257813 64 469.257813 69.523438 "/>
<path style="fill-rule:nonzero;fill:rgb(0%,0%,100%);fill-opacity:1;stroke-width:1;stroke-linecap:butt;stroke-linejoin:miter;stroke:rgb(0%,0%,0%);stroke-opacity:1;stroke-miterlimit:10;" d="M 487.277344 83.097656 C 487.277344 88.621094 482.800781 93.097656 477.277344 93.097656 C 471.753906 93.097656 467.277344 88.621094 467.277344 83.097656 C 467.277344 77.578125 471.753906 73.097656 477.277344 73.097656 C 482.800781 73.097656 487.277344 77.578125 487.277344 83.097656 "/>
<path style="fill-rule:nonzero;fill:rgb(100%,64.705882%,0%);fill-opacity:1;stroke-width:1;stroke-linecap:butt;stroke-linejoin:miter;stroke:rgb(0%,0%,0%);stroke-opacity:1;stroke-miterlimit:10;" d="M 504.144531 98.082031 C 504.144531 103.605469 499.667969 108.082031 494.144531 108.082031 C 488.621094 108.082031 484.144531 103.605469 484.144531 98.082031 C 484.144531 92.558594 488.621094 88.082031 494.144531 88.082031 C 499.667969 88.082031 504.144531 92.558594 504.144531 98.082031 "/>
<path style="fill-rule:nonzero;fill:rgb(0%,0%,100%);fill-opacity:1;stroke-width:1;stroke-linecap:butt;stroke-linejoin:miter;stroke:rgb(0%,0%,0%);stroke-opacity:1;stroke-miterlimit:10;" d="M 519.753906 114.375 C 519.753906 119.894531 515.277344 124.375 509.753906 124.375 C 504.230469 124.375 499.753906 119.894531 499.753906 114.375 C 499.753906 108.851563 504.230469 104.375 509.753906 104.375 C 515.277344 104.375 519.753906 108.851563 519.753906 114.375 "/>
<path style="fill-rule:nonzero;fill:rgb(0%,0%,100%);fill-opacity:1;stroke-width:1;stroke-linecap:butt;stroke-linejoin:miter;stroke:rgb(0%,0%,0%);stroke-opacity:1;stroke-miterlimit:10;" d="M 534 131.871094 C 534 137.390625 529.523438 141.871094 524 141.871094 C 518.476563 141.871094 514 137.390625 514 131.871094 C 514 126.347656 518.476563 121.871094 524 121.871094 C 529.523438 121.871094 534 126.347656 534 131.871094 "/>
<path style="fill-rule:nonzero;fill:rgb(0%,0%,100%);fill-opacity:1;stroke-width:1;stroke-linecap:butt;stroke-linejoin:miter;stroke:rgb(0%,0%,0%);stroke-opacity:1;stroke-miterlimit:10;" d="M 546.792969 150.457031 C 546.792969 155.980469 542.316406 160.457031 536.792969 160.457031 C 531.269531 160.457031 526.792969 155.980469 526.792969 150.457031 C 526.792969 144.933594 531.269531 140.457031 536.792969 140.457031 C 542.316406 140.457031 546.792969 144.933594 546.792969 150.457031 "/>
<path style="fill-rule:nonzero;fill:rgb(0%,0%,100%);fill-opacity:1;stroke-width:1;stroke-linecap:butt;stroke-linejoin:miter;stroke:rgb(0%,0%,0%);stroke-opacity:1;stroke-miterlimit:10;" d="M 558.050781 170.015625 C 558.050781 175.535156 553.574219 180.015625 548.050781 180.015625 C 542.527344 180.015625 538.050781 175.535156 538.050781 170.015625 C 538.050781 164.492188 542.527344 160.015625 548.050781 160.015625 C 553.574219 160.015625 558.050781 164.492188 558.050781 170.015625 "/>
<path style="fill-rule:nonzero;fill:rgb(0%,0%,100%);fill-opacity:1;stroke-width:1;stroke-linecap:butt;stroke-linejoin:miter;stroke:rgb(0%,0%,0%);stroke-opacity:1;stroke-miterlimit:10;" d="M 567.699219 190.414063 C 567.699219 195.9375 563.222656 200.414063 557.699219 200.414063 C 552.175781 200.414063 547.699219 195.9375 547.699219 190.414063 C 547.699219 184.890625 552.175781 180.414063 557.699219 180.414063 C 563.222656 180.414063 567.699219 184.890625 567.699219 190.414063 "/>
<path style="fill-rule:nonzero;fill:rgb(0%,0%,100%);fill-opacity:1;stroke-width:1;stroke-linecap:butt;stroke-linejoin:miter;stroke:rgb(0%,0%,0%);stroke-opacity:1;stroke-miterlimit:10;" d="M 575.675781 211.527344 C 575.675781 217.050781 571.199219 221.527344 565.675781 221.527344 C 560.152344 221.527344 555.675781 217.050781 555.675781 211.527344 C 555.675781 206.003906 560.152344 201.527344 565.675781 201.527344 C 571.199219 201.527344 575.675781 206.003906 575.675781 211.527344 "/>
<path style="fill-rule:nonzero;fill:rgb(100%,0%,0%);fill-opacity:1;stroke-width:1;stroke-linecap:butt;stroke-linejoin:miter;stroke:rgb(0%,0%,0%);stroke-opacity:1;stroke-miterlimit:10;" d="M 581.929688 233.210938 C 581.929688 238.734375 577.453125 243.210938 571.929688 243.210938 C 566.40625 243.210938 561.929688 238.734375 561.929688 233.210938 C 561.929688 227.6875 566.40625 223.210938 571.929688 223.210938 C 577.453125 223.210938 581.929688 227.6875 581.929688 233.210938 "/>
<path style="fill-rule:nonzero;fill:rgb(0%,0%,100%);fill-opacity:1;stroke-width:1;stroke-linecap:butt;stroke-linejoin:miter;stroke:rgb(0%,0%,0%);stroke-opacity:1;stroke-miterlimit:10;" d="M 586.417969 255.332031 C 586.417969 260.851563 581.941406 265.332031 576.417969 265.332031 C 570.894531 265.332031 566.417969 260.851563 566.417969 255.332031 C 566.417969 249.808594 570.894531 245.332031 576.417969 245.332031 C 581.941406 245.332031 586.417969 249.808594 586.417969 255.332031 "/>
<path style="fill-rule:nonzero;fill:rgb(100%,64.705882%,0%);fill-opacity:1;stroke-width:1;stroke-linecap:butt;stroke-linejoin:miter;stroke:rgb(0%,0%,0%);stroke-opacity:1;stroke-miterlimit:10;" d="M 589.113281 277.738281 C 589.113281 283.261719 584.636719 287.738281 579.113281 287.738281 C 573.59375 287.738281 569.113281 283.261719 569.113281 277.738281 C 569.113281 272.214844 573.59375 267.738281 579.113281 267.738281 C 584.636719 267.738281 589.113281 272.214844 589.113281 277.738281 "/>
<path style="fill-rule:nonzero;fill:rgb(0%,0%,100%);fill-opacity:1;stroke-width:1;stroke-linecap:butt;stroke-linejoin:miter;stroke:rgb(0%,0%,0%);stroke-opacity:1;stroke-miterlimit:10;" d="M 310 300.003906 C 310 305.527344 305.523438 310.003906 300 310.003906 C 294.476563 310.003906 290 305.527344 290 300.003906 C 290 294.480469 294.476563 290.003906 300 290.003906 C 305.523438 290.003906 310 294.480469 310 300.003906 "/>
</g>
</svg>
